<svg xmlns="http://www.w3.org/2000/svg" xmlns:xlink="http://www.w3.org/1999/xlink" version="1.1" x="0px" y="0px" viewBox="0 0 100 125" style="enable-background:new 0 0 100 100;" xml:space="preserve"><path d="M35.7,46.1c-1,1-2.5,1-3.4,0l-6.6-6.6v24.4c0,1.3-1.1,2.4-2.4,2.4c-1.3,0-2.4-1.1-2.4-2.4V39.7l-6.6,6.6  c-0.5,0.5-1.1,0.7-1.7,0.7c-0.6,0-1.2-0.2-1.7-0.7c-1-1-1-2.5,0-3.4L21.6,32c1-1,2.5-1,3.4,0l10.7,10.7  C36.7,43.6,36.7,45.2,35.7,46.1z"/><path d="M90.2,63.1c-0.5,0-1.1-0.1-1.5-0.5L64.6,46.9L45.3,60.3c-1,0.7-2.4,0.7-3.4-0.1l-6.4-5.1L32,57.5  c-1.3,0.9-3.1,0.5-3.9-0.8c-0.9-1.3-0.5-3.1,0.8-3.9l5.3-3.6c1-0.7,2.4-0.6,3.4,0.1l6.3,5.1L63,41.2c0.9-0.7,2.2-0.7,3.2,0  l25.7,16.8c1.3,0.9,1.7,2.6,0.8,3.9C92.1,62.6,91.2,63.1,90.2,63.1z"/><path d="M12.7,70c-0.9,0-1.8-0.4-2.4-1.3c-0.9-1.3-0.5-3.1,0.8-3.9l3.8-2.5c1.3-0.9,3.1-0.5,3.9,0.8  c0.9,1.3,0.5,3.1-0.8,3.9l-3.8,2.5C13.8,69.8,13.2,70,12.7,70z"/><text x="0" y="115" fill="#000000" font-size="5px" font-weight="bold" font-family="'Helvetica Neue', Helvetica, Arial-Unicode, Arial, Sans-serif">Created by mohit arora</text><text x="0" y="120" fill="#000000" font-size="5px" font-weight="bold" font-family="'Helvetica Neue', Helvetica, Arial-Unicode, Arial, Sans-serif">from the Noun Project</text></svg>